<mxfile host="65bd71144e">
    <diagram id="kmw1yCpPem27YN0obaP7" name="Page-1">
        <mxGraphModel dx="1742" dy="1147" grid="1" gridSize="10" guides="1" tooltips="1" connect="1" arrows="1" fold="1" page="1" pageScale="1" pageWidth="1169" pageHeight="827" math="0" shadow="0">
            <root>
                <mxCell id="0"/>
                <mxCell id="1" parent="0"/>
                <mxCell id="n-nzrGP00RKk8RGQmk_L-1" value="" style="whiteSpace=wrap;html=1;shape=mxgraph.basic.document;strokeWidth=2;strokeColor=#666666;" parent="1" vertex="1">
                    <mxGeometry x="280" y="240" width="120" height="140" as="geometry"/>
                </mxCell>
                <mxCell id="n-nzrGP00RKk8RGQmk_L-2" value="&lt;font color=&quot;#333333&quot; style=&quot;font-size: 24px&quot;&gt;&lt;b&gt;&lt;span&gt;{}&lt;br&gt;&lt;/span&gt;&lt;/b&gt;&lt;span&gt;&lt;b&gt;Actility &lt;br&gt;Format&lt;/b&gt;&lt;/span&gt;&lt;br&gt;&lt;/font&gt;" style="text;html=1;align=center;verticalAlign=middle;resizable=0;points=[];autosize=1;" parent="1" vertex="1">
                    <mxGeometry x="290" y="280" width="100" height="60" as="geometry"/>
                </mxCell>
                <mxCell id="n-nzrGP00RKk8RGQmk_L-3" value="&lt;b&gt;&lt;font style=&quot;font-size: 13px&quot;&gt;Uplink message&lt;/font&gt;&lt;/b&gt;" style="text;html=1;align=center;verticalAlign=middle;resizable=0;points=[];autosize=1;" parent="1" vertex="1">
                    <mxGeometry x="290" y="400" width="110" height="20" as="geometry"/>
                </mxCell>
                <mxCell id="n-nzrGP00RKk8RGQmk_L-4" value="" style="rounded=1;whiteSpace=wrap;html=1;strokeWidth=2;strokeColor=#666666;fillColor=#E6E6E6;" parent="1" vertex="1">
                    <mxGeometry x="510" y="240" width="220" height="140" as="geometry"/>
                </mxCell>
                <mxCell id="n-nzrGP00RKk8RGQmk_L-5" value="&lt;b&gt;&lt;font style=&quot;font-size: 13px&quot;&gt;Objenious processor&lt;/font&gt;&lt;/b&gt;" style="text;html=1;align=center;verticalAlign=middle;resizable=0;points=[];autosize=1;" parent="1" vertex="1">
                    <mxGeometry x="548.89" y="395" width="150" height="30" as="geometry"/>
                </mxCell>
                <mxCell id="n-nzrGP00RKk8RGQmk_L-8" value="" style="shape=flexArrow;endArrow=classic;html=1;endWidth=40;endSize=8.67;width=36;fillColor=#f5f5f5;strokeColor=#666666;" parent="1" edge="1">
                    <mxGeometry width="50" height="50" relative="1" as="geometry">
                        <mxPoint x="760" y="309.5" as="sourcePoint"/>
                        <mxPoint x="820" y="309.5" as="targetPoint"/>
                    </mxGeometry>
                </mxCell>
                <mxCell id="n-nzrGP00RKk8RGQmk_L-9" value="" style="whiteSpace=wrap;html=1;shape=mxgraph.basic.document;strokeWidth=2;strokeColor=#666666;" parent="1" vertex="1">
                    <mxGeometry x="830" y="240" width="140" height="140" as="geometry"/>
                </mxCell>
                <mxCell id="n-nzrGP00RKk8RGQmk_L-10" value="&lt;font color=&quot;#333333&quot; style=&quot;font-size: 24px&quot;&gt;&lt;b&gt;{}&lt;br&gt;&lt;span&gt;Objenious&lt;br&gt;&lt;/span&gt;Format&lt;/b&gt;&lt;br&gt;&lt;/font&gt;" style="text;html=1;align=center;verticalAlign=middle;resizable=0;points=[];autosize=1;" parent="1" vertex="1">
                    <mxGeometry x="830" y="260" width="140" height="100" as="geometry"/>
                </mxCell>
                <mxCell id="n-nzrGP00RKk8RGQmk_L-11" value="&lt;b&gt;&lt;font style=&quot;font-size: 13px&quot;&gt;Output message&lt;/font&gt;&lt;/b&gt;" style="text;html=1;align=center;verticalAlign=middle;resizable=0;points=[];autosize=1;" parent="1" vertex="1">
                    <mxGeometry x="835" y="400" width="120" height="20" as="geometry"/>
                </mxCell>
                <mxCell id="n-nzrGP00RKk8RGQmk_L-12" value="" style="shape=flexArrow;endArrow=classic;html=1;endWidth=40;endSize=8.67;width=36;fillColor=#f5f5f5;strokeColor=#666666;" parent="1" edge="1">
                    <mxGeometry width="50" height="50" relative="1" as="geometry">
                        <mxPoint x="430" y="309.5" as="sourcePoint"/>
                        <mxPoint x="490" y="309.5" as="targetPoint"/>
                    </mxGeometry>
                </mxCell>
                <mxCell id="2" value="" style="shape=image;verticalLabelPosition=bottom;labelBackgroundColor=default;verticalAlign=top;aspect=fixed;imageAspect=0;image=data:image/png,iVBORw0KGgoAAAANSUhEUgAAASwAAABxCAYAAABvGp7oAAAgAElEQVR4nOy9d5Sd13ne+9tfPXV6L8AAg04CYAFAsIqSKImUSKvSsmLFduSSOPaVb+KbtXKzbhJfZyVO+ePGiZd7k1USybK6RIlFLGInSIDodTC919PP1/b9Y585M2cKMDMYgBjyPGuBCxzMzNnf/vZ+9rvf8rxicHBQUkYZZZSxAaC90wMoo4wyylgpyoRVRhllbBiUCauMMsrYMCgTVhlllLFhUCasMsooY8OgTFhllFHGhkGZsMooo4wNgzJhlVFGGRsGZcIqo4wyNgzKhFVGGWVsGJQJq4wyytgwKBNWGWWUsWFQJqwyyihjw6BMWGWUUcaGQZmwyiijjA2DMmGVUUYZGwbGOz2AMspYD0gJM/mAYyMuXTMuOU/SXmFwR6NNa7x8Lr9bUCasdwhuACfHXE6OOYykPKrCOnvqTG6tN6mwyhtsNQgkDKV8vn4mzfM9OQaSHo4PjVGNfQ02n98b4/ZG850eZhnrgHc9YXkSHB+8QP2/BHQhsXWB+Q7xguNLfngpx/cvZDg16jCe9aiwdTqrTT61K8qHt4SoDWuId2Z4Gw4z+YAfd+X4u+NJRtN+8evjGbgw6ZJyJf/hfdU0RMozutFxwwnLlYKcK5GAoUHIEGhcP1n5rimP53pz9M14gCKshqjOg5ts9jVY1+1zl4ME3hpx+Zu3E7w94uD66tmzrsdIymMy6xO3BB/YHCJqljfY1eBL6Jnx+NbZdAlZzcLxJc/1ZHimO8Tn9kTegRGWsZ64boQVSMi4ktGMT1/CZyDpMZTy8STkPAkS9AJhhXTYVGnSENForzRoiOjrZv30JXy+fz7Dm0O54td21pq0x/V3hLDynuS759OcG3eLZDUfZ8cdnurKsqvWZFu1UbayrgIvkAylfc6M55f9nrwnOTKU47O7I2jlCd3QWHfCCiRM5wJOjrscG3G4NOnSM+PRl/QYSnpL/oylCzqqTBqjOpsrDW5rtLit0aazWsfW310rLOVK3hrKk3GDZb/nwqTLWNqns8pAvLsef90hUdd9Z7FxVQIvEASUw+IbHetGWBLIupLzkx7P9WT5WV+O0+MuM7mrrCSU2X5+wuH8BPwMeK7H4PZGm/dtDnFfe4jWmI6+5pUmr+OFc/XwAokTwPJ0pUg/gJtq3DcrdCGosjVa4jr9iaUPRF2DTZVG2bp6F2BdCCuQMJENeGUgzw8uZHixL8t07kpb8sroT3j0JzyOjTicHnd5pDPMHY0W4TX4dORNdqmKmBqd1SY90yr0vhSaYjqVtlbeYCuAIRQZvb8jzNdPpXAWXLN1AR2VJg+022Xr6l2AayYsL4D+pMdPunJ851ya02MOblC6aDQBYVOjOqRRF9GJGAKEIrqUIxlKeSTzwaLF1pdw+coJjwuTLr95Z5xDzTaRVZKWKPy5WRAzBR/ZGubsuEPPtMtCN1ZtROeu1hBNUf2mGvfNCiGgKarxiR0RBhI+bw7nSDtqUsOmYEuVyWf3xNhbf+P9lWWsP66JsNwALk97fPtcmm+dzdCfcEuuMYYmqI/q7Ko12Vlj0Vah015pFPOMfCmZykkuTjr0JXzOTbicn3RI5YPi73F8yc96s2ia+vu9rSGi1sbdypqAD2wO0TPj8b1zaQaSHp5UEdPasM5DWyK8f3OImnDZHlgpbF1wW6PFFw9V8Mxlk54ZDyeQtMYMDrTYfLAjROhdn8Dz3sCaX6MvFVl9+USK718oDSlrAuoiOgdabA40h7inzWZXjYmlL/PLOkNM5yVvjzg8053l2HCec5MuKSdAFpjr+e4seU8SBHB/+2pI6+bzBNWGNX5pb4zGiM7ZCZeUGxAxBVurTN6/OURHpcG7LNZw3RE2BIeaLW5rsBjJ+GScgPqoQbUtyoGLdxHWRFgSGMsE/PBilm+cSZHMz/mrTE2wucrg0W0RPrM7xpYqA7EC0qiyBe/bZHNHk8Vbww7fOpfmhZ4sYxmf2Rvmq/05pISopXGw2SJkrGQl3pyrtSGi8fm9UbKeSvOwdLXpykR1bbB0aI/rwHKnYxkbGWsirLQreaU/z/fOpxeRVWeNyef3xvj0ziiVtmC1Fk7cUsTVHFeO5x9eyDCS9oqk9fpAjq+eNKiLaOyoMVe0wW8+G0tBABED5dMro4wyropVE5YfqDyhH11Mc2nKLX5dE9BaYfC5W2L8oz2xa/YZ7Kg2+ML+OBL4/vk04wVLSwJPdmXYVWdSF9apj1zZ13NzJTWUcSMwm5uVdALcQFmz5SPh3YFV08pELuCF3hwv9efwCmaPQDmMP7otwmd3R9fNwdlRqfPLe2Mk8pInLqZJOcqay3kB3zyT4rYGi3vb7XWvCZQoB3/Wk3iBimZqQoXITV0QMcQ1pxz4Un2GnMenQigH8nqkMwQS8r4k50ncQB00Qijnvi7ANgRhQ1zzRpao3z0funb1i7gfQM6XOL4sRko1VBJxyBAYa3infoGkxrIBvTMeF6Y84rbOZ3eHuVYj1gsg66nxugEEhRenC1EsMQutw5XeDVTitap9nS1hE9SFry3NJetJEnlZPPQBIqYgZq5trmcPhaxbmBMJUkpAzYGhqRtX2Fzfmt1VUYvjS06NOfy0O1eSZxU2NQ63hfjFW+NU2Ot7lm2rNvjFW2OcGc9zZtwpbo6uKZcXenPsqDVoia2PvyLvS0bSAUMpn5G0z3DKJ+NJvECiC4GtQ2VIo71CfWZLTF91msUsRtM+b404pJ0AEEgpqQ7r3NlkUbvGCGFxw2bU+EczASPpgJSjiEvX1PUzZAjqIxqtcYOGqEo1qVhj5HUwGXBx2i1kmqutcLDZospe/AwSlcYykvYZSqlyramcJOerXWTqUG1rKppcYdAUXfn8egH0Jnx+2p3l6IjDseE8E1mfn9sR47O7w2t6ttn8wuG0z1jGpz/hMZ2XpFx1kCGVzyxiCOqjGq1xneaoQVNMJ2at7TAYSQd861yGmbz6AImgJqzxK3tjxK5BcOL8pMdPu3Ok3MIhKWB/vckDm2yqQytfbzlPMp4N1PpKq3U2lZNkvLmDx9QEMVO5d1rjBo1RnaaYTnVIu2byWhVhjWYCXupXxDELTcDWaoNP74qypfL6hOIPNpk8si3CUNJnIjsXjXymJ8uDm0M0RPQ1nRKz8AKYzAUcH3V4qivHy/05RtIeGTdgQUoZhg61YYNDLTYf7QxzoMWmKaqv+mQ9N+nx316eob9QriSl5NYGm99/XxW14dXlDEmpSn4uT3u8OZznxb4cx0cdZnIBWU/iL5EXFzE1qsM6B5pt7m61ubPZYlOFseqC6+f7cvzxkQSTOb94dH/14/Xc3jT3DBJIO5KBpM9bw3me783x9miesXRAzpNFa0UICOmChqhKR3ikM8zBZpvaFVgXWU/y6kCOP3hpimwhITe8RrNKAol8QNe0zwu9eZ7tydAz7TJdyBWUcvHPhE1BbVhnX4PNg5vDhfnUVzWfEpXT+FdHE4xl5rL2t1SZPL47SuwaiuGPjTj87dsJxjJz++fxXVH2N5grIiy/QN4nRx2e7cnxSn+O3oS35PqahaELKm2djkqD+zeFONRis73aoDmmr9laXDFhzaYxvDmUL17NAGKWxp1NNve22WsbwQogBHxqZ4xnLmeZzvtFK6t7yuXoiMOeOpO6q/iylkPel3RNe/zoYpbvnk9zedpb9gUAeD6MpDx+eMHjjcEcH98R41O7IuyqNVd3ekjI+UFJTaE3315fIdwARtI+rw7k+cHFDK8P5JjJB0tuqlmohN2AlBPQn3B5uivNbY02/+jWOHe3WjREV26x5lzJdM5net5B4s2bPy9QWlWvD6kqiDeH8kxl/UUJs6CIN+tJemZcBpIeZ8YdPndLnI/vCFN3VatTEgSySFbzoaLUK9shgYSBpM/zfTm+eUYlQqfdK88nqKtRv6sqNF7ozXK4LcRndkW5p82mJnSTVC2scQxeAD2JuT1yYXLpwv1FP+dLJjIeExmPt0fytMQNPrQ1wmd2RdhWvfrDEVZBWCkn4OyEU+JoB2iJG9y/KXzdpVA2V2gcbg3RNeUWr6NuIHltIMcHOkJrIqycJzk57vJ3J1L84Hy6WCojhDJrTV2Z9U7B1zIfgYThlM+Xjic4N+nyfx6q4LYGa/lcs4VYYrpsQ6Ct4jHyvuTCpMe3z2f4wXmVhDrLFZqAsKERswRRS8PSBbLgN0s6AVlXFjdi0pG81J/jwpTHL+yJ8Uv7YjRFVziQK7z2rCc5N+nx9dNpnr6cYTjllxwGWsEnaGoCN5Al1osXSM6MO/zv00lqw4Kf234tSgsrv1Zemvb50ttJftSVZjztL7Kwda3Ux+YW/ITzvy/lBPz0cobL0y6/sCfGx3dEaFmhVbHct1zz7lpjMpovoXvG42un0nznXJqRtIeUc9UrVbZG3NaYrznpFw6emVxA2lVWtBdIemdcvnw8wbGRPP/0jgo+1BHCXqU3Z8WENZkNOD+p9JqKP6wJNlca3Nl8Y8oe3rcpxI8vZUr8Z6fGHAaSHrtrzVVdC11fcmLM5c/eSvBkVwYvUA7fmrDy6dRHdKrDBpYOQ0mPwaTHZDZgJu8XxQBBkd7PejLM5Hz+3wdquL1pZakWS0E5bVf2w44vOTnm8uUTKX58KUOikF6ia4K4JWiJG+yotdhbb7Kz1qI+qhNI5Ts7OZbn0qTH0eE8I2m/ePUdTnn8+dEZMr7kn98ep2FFpLX0eCezAa8PKd2vI4O5ouUjBERNjaqQKtVqihnURnSmsj4XJ13lN3RVpYOUSm7nya4sd7eGaFwpic4f2irexdkJlz98I8Fz3RnSbilTRUyN2rCmFEWqTKoK16ixtE9fwmMk7TOZ9YuHXiDh0qTLXx5NknQkn781SmtM33BJrBPZgO+ez/DdcymGU2rv27qgtcLg9iaLe9pC7G2wqQ1paEIRd8ZTJHd0KM/pCYczYw7j2YC0o67UJ0fyfO1kigNN1soPxgJWTFgjaZ/LU27JSVIT1rm1Xg32RuBAs01dRKd7em4cCSfg8rRH0gmWuYsvXiGBhK4Zj9eHHJ7sygCCuojGnjqTh7dFub89RHVIYOsCXRNk3YD+pM/Tl7P8tDvL5Wll5c2OwZdwfCTPf311mv/2wVo2V1x9PpZat5a+siiTlMqJ+jdvp3jiYrpIBrYuaK80eXBzmEe2hdldaxK3FvzOeoMPbLZJOoqwv3IiyRuDOUZSPhKlYfaV40l04IsHKwq5dKvDcDrg5YE0Xz+dom/Gw5eqBD1maTREde5otvngljC31JlU2xphU+AF8MZQni+fSPOz3mzxquwHcGbc5aX+PJ/auTbn+Uowngn4wzdmeOZytqQo3dCgLmJwsMXm0W0R9jVY1IQ1bF1l0Gc9yWQ24LXBPD84n+btUacQ5VO/YyTt8a2zKSKm4B/dEl3B1fbmgRfA64N5nr6cZbhQyWLqgr2NNr+8L8aHtoSXDdZ0Vum8f5PNjCN5azjPt89leK0/x2TWp7XC4JM7o2sKLq2IsAKpHO6DqVKpmNqwxp761Vk214KwAduqLU6POUU/Wt6TdE97zOQl1aHFPyNZ7BaayQc8dTnLSMpHE4JtNSaf3BXlE9sjNMUWO9BDurIG9tSZfGpXhL8/neGbZ1P0JbziFcaX8Fp/li+fTPGv7opfVcdrKQ+ALgRiBUfwRE6dek93ZYpkZRUW0j/eG+OhjtAVHam6UJUF97Za7Kmr5smuHH/4+jS9BVXWjBvwdyeSNMdVWsmVfXOLn+R/HknQl3CZKVjCpi5ojOq8vyPCY9vD7K03iVuL/ToPtIcIpGAy63NkKFec256ECiZ8Ykf4uviCsp7kT46meL4nV0JWuoCdtRa/fkcF97WHaAhri9a6aQkqLJ1NFRHuaw/x/fNqbcz38/QnPL55JkVNSOPTuyJrDgbcaIxng4KrwCm+i45Kk1+8NcZj2yJXdX9oAqptpZ57oNnm+R4lC36g2eaRztCaIoYrIqy8L5nOB2QWmMn1UZ1b62+suP/uOpNnu7USx/9wOij8/8ouxKOFkKyhCfY2WPzmnRU8ui3C1TzeuoDNFQa/dSBOZ43J7z0/WRJ1cQP40yPTfLQzzO0N5hXN/6VuKxk3KHFYLwUvgCcuZfnBxQyJwhzoAnbXWfzabXE+ti284iupJqA2pPGpnWEaIjq/8+R48cqfcQL+6I0ZDjSFuK3xCstkieGeHJ1T/wybgn0NNl/YH+fBzSHiV0ifMDTY32ByqMXmxGi+SB45N2Ao6TGRk9SH13+zP9ub56snEiVrSkW/Tf7t/TXc1WJd1deiCWiNafyzO2K0Vej88ZsJTo46xffZNeXynXMZOqoM7m21N8TVcCTt0zvjkXHmXvKuWnN1vlrUOq+0BI9uC/OhLWH8QK454rkijsu6krG0X/JCASxt7aHjtSJqskjMry/hFn04K4UmYHuNyT/ZH+fRbWFWE54LG4KHOkL84t444QVHrpTwF0dTXEFQFACxxMwn88FVoy9dMx4v9ObomVbBDwE0x5WJ/eEtoTX5z2xdcFerxW8frMIsmDASGM/4/OGRmas+y3IIm4IPbYnwn95fw6Pbw1ckq1nURzS2VZtULmCI0bRfkk6zXsh48IevzRTy4ebQGDP4f+6v5lCzuWrH8KPbwvzG7XG2Vs8d5oGEYyM5fnwpS8JZ+Vp7JzGS9pjKls5LyFA3nbVABYIgdg1qKysirJwnmc76JSF4Q1NRrRtdrFsV0oubahbjaf+KksNLoSFq8PieGJ/aGV3TOOKW4Ff3x7i7PVRiKUngu+eSjGSCK1KgpS2+/uXnZX0vhUDC8z05jgzNWTC2Ibi/PczDneEVFoMvDVsX3N1q0VZZusle6ctyYdJbdYGTqQse6Yzyr+6uZHft6rTp2yr0ks0O6tp2LaKQy+FHF7NcmirVJTM1wT/eG+dA00oL7Bfjw1sjPLq99PqXcSVHh/O8MbS8/vzNhNko33ws5WK5kViz98nQNKKmhnmDGas2rEL01wJdwMFmm4c6Qmhi7dMftwS/vC9GxRJZ3d84k77i9c7UFmdCSymvWPs4mVOh/pHUXFJha9zgcKvNporVZ/vPlu9M5gLOTfp89VSayUypnzLtBLzYn7tqHtJ86BocarH5rTvjdFat/jiutLVFemB5X5JaZ8skkPD9C5lFKSvba01+bnu4GAlcCyKGimrf1Roquf5dmHR5dSB/xYPpZoEuFhNExmUuW/4dwIreyFL04AYq6TG4is9lvZF2A/yFs7VK/mqrMLin3WZz5bUVPVq64HCLzT3ti6NXT1zKlKQ/LIQm5CI/RiDFFY+vN4fynB2fy4MTKN/V3lV2/wkKeTIDSZ8fXsrxGz+a4OGvDfCV4wlm8n5hfBRKeHRG01e2Fheio8rkX99Txc7atfk3VR1a6ddSjmQ8e/X+AKvBWFbycn+25GDRBHx+b4yGyLUrvu6sNbmz2SY6L0kp50kGkz6j6fW3FtcbDTGDqnDpQfjGYI4fXcwwlPZxfLkoT+16Y0U7VtcoJlHOjs+fLXy8wfM+mPTILXD+Gxpoq/BihgxBhXXtdU2gask+0BHmxxfTJZv69GielKvu/EuNbKmPllJesTlFX8IrhpdB5QZtqzHZVLky68qXasMMJANe6Mvy92fSnBgpvZ5ohQLshqjBRzojPL4nwi11Fqs5Ug812TREriG7ezYJax7cZbLYrwXPdWcXVTXURw3uaV2fnpAxU7Cr1mRzhcGpMeV/8wJFvCMZn+bYzZ3i0F6h6iI1QZGYxjI+f/FWkjeHHD6+M8pdLTZ1EY2QrvIyhbi+CnQrIqyopdESN6gK6UzN64LjS244YbmFdk3zsanSpHIZ811c5zYUpia4s9miMqQt8rGcmfC4p2XptA9NiEWk5QQUlABYtNkDoHvGZXjedVDX1KaIGBpXMs18CVk34MKUx0+6sjxxKcvFSaeEE2aJaluNxc/vifNIZ4iW2Q11JbJa4qDYKJI+fanFmex76iwq10mldFZyqXUeYQFMZn36Zjxua7ixEfbVoi2uc3dbiLdHVP+B2alKuQEv9Gb5WW+W+qjOvkabe9pC3N8eoj4iqLA1DFHwb68zga2IsGxdUB3WiVpaCWElnIC+hEdL9MYJ/F+a9hZlIbdVGEv6kW4ENAFNUTU3CwnrxEiOu5oNlnI526ZQpTjzTi8lt7I09eS9pXvviSu4Qf1C2c2xEYdvncvws54sI+nSVlhCQMjQ2FFj8Mv7K3hse5joBskTulaMZRbXCO5rXLujfSm0xnTa46XbbDLj0zvjAtcvEXY9oAv49K4IGVfy18cSDM4r/QK16kbTPk93qZzAsKmxpcpkT53FbU0W97eHqAsLKiyBtoTPdi1YEWEZmgpFLpT6mMj4nB1zONRs3RCBNF8K3h7Ok1jQ67AmpL2jyXjaMlbclYqQQ5qyXDUhimoFKScolsksjCvkfLmoG9Fy8AKYygW8OezwrbPpJduuaYUSmVsaLH5lX5wPb40Q0jeGZbRe6E94i6z1sLG+GvCmzqKcpQDwr1iSvfg9vFNO7qgh+LX9MfY1WPzN20le6M2WqAzPR9YNOD2W5/RYnn84AxW2zt5Gm/vabT7aGaE1fu37dMVe580VBnvqLM5PzJm2M3lJ14xH1pVr1oVaDY6N5JnO+SWvM2IKdtauTCLjekEIlrTwfLn8nMRsnbitoWsUnfMZV5J2lFzHwtQNKa++aPO+5MKUx7M9OZ7tznJ8xCHrlZKmrkFTzOBDW1TY/VCzhS5AXEO0dKMi7QbXnQk0liElKZchrJvvPRga3N1qcXtjLWcnXJ7syvDGYJ7ehMdwyl8yGi6BmbzPS70ZXunP8NfHErxvU5iPbovw4GZ7zR3dV0xYtWFBR6WObQjyBefnTN7n9JjDUDqgs+r6i/4/eTnH+IJEtqaYQUfl2oX01gNSQmKJHCH9CosvbEDFgjo/P5B4cuklqy2RtwWqUWzWE5ydcPjW2Qw/6UozklaqCPPXkaULOqtNPr4zxse2hdlUoUqQbgrZk3cIjVFdzek80pISuMJBs1r4Uqjo7wKIJVIGbmYI1Jrd32Cyt76StBvQl/Q5PeZyZFgJJvbOLE7glqgA3Vja59vn0rzQm+WxnVF+646K1RezswrCqg5p7KwzaY4bdBckZqSE3hmP53pytMejq0rXXy1G0gEv9maZWXAdvLs1RGt8dYmJ6w1fsmR4N3YF562tz/qw5sdelc/J8RdnE0cMQWjBqeRLeK43z5GhcY4N55goFN3ONxqipsb+JovHd8e4r92mPqxhaOsjw7zR0Rg1Fr2fsexs2sz6TFDSDYolVLMIG9rqfa7XOhy5zEm4SmiFQ67C1thjaeyqMXhse5jpvKRnxuPkmMurAznOjrv0zLjFKKxERUhHMz7fOJUimZf83gNVVK4y633FhGVogh01Frc12EXCAlVv9HxPlg92hOhYYXh9Lfjfp9P0JkqdflFT457WEE3Rd65Lpi9hMKVqLRdif2NoWbmYWXXNhcRxesxhosOm0i59JlOTVIdUsu5s9nHGCXi1P4sAPDlHVJpQ6pd3tdk8uj3CwWaL2pCmklXLRFVEfXixI/jIYJ6MG1uykH4t6J7yuLhAQ64uqrOlarlA1fXJC3DXh6+KEBSsxHma9vVhi9sbTX5+d4SRtM+LfTl+dDHL2yO5YtKvlKoE7aeXM+xrsPiVfdFVPe6qaL4trnOg2aJmXjKZ46vs6x9eypBZ5zyZWQylA350McPUgsTBw20hdtYZ2O8cX+H4kud6smSXKA3aVWssqnuchQBuqbeILkgGG0gq5YmlcmO3Vhu0zIs4zZ5absGqMjRBR5XJL++P80cP1/EfH6zm4S0hmiI6ll4mq4U43BZalHIykvLomfFx1yFH1ZdKaaIvURqZrbSUrtZCCJT1svA1BVIuyj1cDabzkmcvZ5Z1lq8HBIVyPV1FBTurDD67O8p/+UA1/+KuatrnlXxJlAT1s91ZkvnVPdeqCCtmCQ62qJyL+Yt/OO3x/XNpXuzLXzG7ey1wfPgfrydKNLBACdV9bFuYjsrVXwcDKYrdcK4FyrEo+eaZ1KLT6/Ymm4qrNCLYUWMSW6A3NZTyGUt7S0YEO6oMmuOLF7pZyJ/6jTsq+J8fqeNfHa7kcKtFXaGMqUxUS2NvnUnMKm0BNpn1ebY3S3KtFd/zMJj0OT6SZ3ReKompq4YVTdGlX4pRSDOZD8dXOXhrgRfAn7yV5NiIs6gE6XpC9Q0QdFQafHpXhC/sj5Uczk4guTDhFCWNVvx7V/PNArXJHtsRoaNqjjH9AM5NuPzpmwleHsivW+DFk/CnR5M8cSlNasECenR7hDubbcJrcLYPJF2OjeSZzF7bosy4ki8dTy2SjQZ4pDNyVZ2wLVUGbXGzpDayL+EykgmWVEi4pc7kljoTe15oWBNwsMXm395fxf9xIM7+BpMqW7VWKvPUlREy4LEdsZL5dwPJd86luTjlrVmlYhbHRhyODDklbdAaojp76izi1tKLI25r7KwtvS46vqR7evWElfUk/+NIkm+cSjKzILp+o6AJqAtr3Nce5pZ5JWRSQtaXZFbHV6sPVNg6HG6x+czuaElORd6XvD2a50/eTHB09NplQHKe5G+Pp/nKiSTjGb+EBNsqDB7fHWNzxdqc7VlX8vpgnpcHcmt+iY4veX3I4WunkovCupYu+OSuKMZVPNvVIdXSaj4Bub6q8Vuq0DdkCO5qtdk9b0EHhcBH34xHxFwsMLdSzIo0fvdCjqPDLtm1HegbDp+7Jbro0BtKKjXXkfTaN/n5SY+nLit12lkYmmBPncWhFnvZoEfEFGxaUOPq+JJLU6u7o047kr8+nuKrJ5KMZRZn9N9IaEIVg8eWIulVbuA1Le/asMZHtoT56LZoycTnXMkbgzn+4KVpnupeu6U1kg74z6/M8KdvzizKrq0O63zxYCV3NplrjkpK4OKUy5eOp3j6cnbVP/RpLPMAACAASURBVO9LuDjt8V9enmZ8gbqBEPD5ffEVdRvWBdzRFKJyQcToxKjDUNpb0o91sNnmYItdQnLDKZ8fd2V5bTC/5g2W8yRPXc7xey9M8ts/Gefz3xvl3zw/zaXpq22UG7MTrpe1uL3a4OFt0ZL5DCQ83ZXhayfTTKzBCh9KB3z9TJpnurMl17CmmM49bSF21izvdLV1QUNEK8nDS7sBrw5kVf/Gq0AieGvE5d8/P8VfH00ykvbWTFaT2YBTY15Ry32tkKjb0nx30WyruWUMzWWxJsLSBGyrVnLBexvm1BMl6pp0ZCjPH7w0xX97LUHX9MptvqwH37uQ5XeeHOcbp1MMp0onO2xq/JP9cT7YEaJitU86b+y6JnB8pU30R0eS/P2ZlTskHR+Ojrj84esJzoyV1uMJoDlm8Gu3xVds6eyuM6kKlTYnOD3m0D3tkV9igVbaGh/pDHOwZa6tmhdI3hrK8eXjKY6PrN40yvuSlwcc/ujINCMpj+5plzeH8rzQk10X5/N64XqQlqnBb94RpzVulBy+aTfgKycSfPNshvHsytUqehM+f3E0yT+cSTE9LwUnbGjc3RbioS2hK5b+xC3BLXUmcbuUQIeSPt86m7niZ/cnA/7krST//vlJnriYKZKVEIJ72sM0xowVNzkJpFrn//XVaX7/xWle7M8vuR5XAseX9M74JUnnsw1sWpfwyV4Ja46vWTrc2WTxG7fH+bOjkhOjbqFVtdJZvzDpMJbxeaU/x8EWm/dtDrOnVhUpa8yFOB0p6J5yOTvpqq69Q3n6Eos3a9jU+PXbK3h8V4SG6Nq7j9RFVDeZ6ZzPqbE8x0fy/H8ZjzeGQnx6lypBWEpR0ZcwlPZ5qivL985nODnqLHKMmzr82u0VtMdXLk3SUWmwuVLn4qQoSgKPZ31OjXscagkWdbXWBNzWaPFIZ4SeGZ++gjM246popRtIfmV/nMOt9lVPL4lqIPsPZzJ87VSSvoIDVKKcwx/dHmHzdUxVuVmwtcrgX9xVxb97boKpeQnA49mAP31zhnPjLp+9RTUdXa60JOVKXu7P8w9n07zSn2MiO+fGMDUVrPr0ziibK6685Uxd0F5hsK/R5rnuOet/Jh/wN2+naIoaPLh57krpBHB23OXVAYfnejOcGXeZzPjFtRmzNH7hlhiPdEb4Ty9NMZFZplh1AQaTPk92ZXi1P0cglY7Xh7ZGeGxHhO1VxooPZC+Ai1MeXz+TKmkOGzYEB5tX13UaroGwAOKWxkNbwtRFdL5yMs2PL85JA/uBqjVM5ALOT7o8cTFDzBKLSk5mtZlSbsBkNiDnBovEzRqjBv/X3VV8YLNNwxq6LM9HyBC8b1OIsAl//pbSrO6d8fheNsPrgw7bqk0ONFu0xXWqwzpTuYDRtM+lKY+jI3lGUh4T2WBRxMXUBb9xhyLU1YwvZsL7NkV4e8ShvxD+9gPJM5czHGq2qF9wPQCVRPqxbWEyruTLJ1KFQlrVpv6F3ixd0x77Gy0+tCXCoRaLhgU9G/O+KiL/yaUsz/dk6JnxSvwcti74xM4Yv7o/vmY53I0EXcBHtoQYz1TxP9+YLgnGjKZ9fnQxzZvDOTqqTO5sstleY9IQVbIro2mfi1Mebw7nOD/uMpqea1MGypK4d1OYX78tzoFm66obXaAy8B/ujPD6QL6opOsFkvOTDv/uhUna4iq9ZSKrOqGnnYDpnGpo68xLHN5ZZ/Ev76rkziYLWy9EjFcwH16gOnq/MpAjVehdeXbCZTiV5OmuDPsabd7fEeaOJpvGiLakCKYvVa+Fn3Rl+cH5NKfG5oIPli64tdHmEzuvHphaiGtajkIoE/ZQi0VtWKez2uB/nUqVKGK6gWQq6y/KoVop7t0U5lf2xrivPUSFfe0V36ruT/DhLWEcD/6yUIWeyAck8w69My5vDuUIG6qRqhsoizHtBiSdpYuZbV3whdsr+MK+2KpbF2kCDrda/OCiyWhBFA3g0pTLC705dtSabF5CTbQ+rPOZXcr38pUTqaK5nXGVdTuQ8HhjME9tWKMurFMfM0BKkvmA4ZRHypXFXnoLk3E/e0uMf3pHnMYVNad9d8QiY5bg8d2qWeufvZUocUcknYDkZEDvjMfbw3li1ly6yOzamMkHxZK1WVi64INbwvzqbRXc3ri8dbbUWO5rs3l0R5Rvnk4Wx+H6kq4pl54Zj5Ch3BpL9QCIWYJP7orx6Z1R9jaYhAzBzCpUmXVNtdQ72hpiPBMwnVOlXhNZtV66Zzxe7s9RZau2bVuqFYGHDYEvle+re9qla8plNOMznp6z+HRNdan64oHKq1qbS2Fdzk9bF0qeZG+MvQ0Wf386zVOXM1ds+X41bK40+cyeKA9tCbOj2iBkrI2sZKEqfj4EKnDwmd0RYpbgS8eTnBpzkCjnc85bGbkKAfURnV/ZX8HP71YtwtaCTRUGdzTZnB5zik5815c825PjQItNYyRMaMGbEgIaIhqf3BGhOWbw9dMpXuxVPfWkVD6Y9HRAzzQYuirrmU00zS2R4KsLpSv2a7dX8OEtoVX4Fm6+Yt21YrYNV21Y56/eTnJqNF9iSTu+ZCzjl3RKWg51EZ2PdEb4hT1Rbq03V1Xsqwlor9D51f0xPF/yrbOpkn/3A1UkvxBhQ+Ohzgg/tz3CvnqT5phetGBW85YE6pr8z++Ms6vG5NvnlIXk+KpgO+UExYY0pi54fTCvmgBrFLuLp125KJna0gX7G21+51AlB5vNZZOqr4R1M/gNDRqjGu/fZLO10uAjnWGeupzl1ULzxJViT73FBzsi3N9us7PWpCasXVuji4UyB7N/LeSHPLY9TGtc54eXsjxzOVtiHV4JIUPwgS0RPrMryp1N6uq2Vlg6fHBLmJf7cyVNOPsSLt86m2FThc7tjYtLOYRQxPvgJpvNFToHm22+dz7N2XGneK2WKPJbrhuPEFAT0nl4m1roexssqlbTPPVm5ivJqsdXE9L48NYQW6oMnrqc5Tvn0vQl3JJcqishYmocbgvx8R0RDrXYNEfX1oPA1AS7ag2+eLCC/Y0WP+nK8uZgnvwSA6kK6XygI8zDnRF21Rq0VxiLOv0sOYIrDMvUYEsh6fOOJovXB/O80Jfj+IhTsp9dXzLtX3l/60LQHDd4bLvqS7m7bnUEPh/r7qEIGYIdtQbtlWqTDSajdCd83hzKM5MvXA/zAcgCycUMKi1Bc0zntiab9rhOW4VBfVhbEwMvRENU5772MG0F87M+YrC50iyGRyttjXvabLZWmXxgc4jXBh3eHMpzbsIpaf2kCfW9t9TbbKk2ONgSYm+dyZYqY12KvvfUGjzcGWEg4TGQVKTp+pJX+7M802DSEjOWrW6PmoI9dSZNMUVaJ8Yc3hrOc3bC5fKUu8jfpmuqseltjTa31Jvc3mSzpVKnNb5yZ+osWioM7m4Pl0RZd9bZi7K1V4MKW3Cg2S75WszS2X0FjXhTE2yuMnlsR5TZnWjpsLdx9VptMVNwW6NJS0zjvnabE6MuJ0Ydzk64dE87i/pz1oR1OmtM9tZb3N5ksbvOZFOFsebee/OfaVu1QWM0yuFWm+GUz2gmKMpkG0JVP1TZgra4Iqrl1mLUhP/7nqoSeabmmE7DEiVCsxCoXMHKRouOKoP7N4UYTPqcHnc4N+EykAromlIEttBVMivmt6vWZE+9xf4Gky2VBs2xtQfMAMTg4OB1PSPV9UT5S3K+uo7kfVWJqQmIWKrtd9RUm2g9dNbnI+VKJrIBuUISiKUJasL6kv6wvC8ZywQF345yrM8VFCsyrovoVNqCxphBaJ0DaP2pgN//2RTPzOvoDEpb+3O3xvjMrihtV7mqBVIpPoymfSZyPtPZgKwnyfvKmjI1QchQm7IhalAX1qhdQc7YcpjIBoxkgpLrf3VIoyGy9u5Gjq/avyfnHRi6Jqi0tWV9hLPPrRRV1fVXE1BhaTRE1/58EtXuajwbMJn1mckHShW28LhCqIhXdVijLqJTH9bWVbF04ViyHsWDdFY1Yb33zJXgSTUfk9mApBswk1Pra773R6AOi0pbpyasOiBVh9b+DubjuhPWRoYs/ofrVUS/6POe7s7x31+b4cS8rsGgtME/szvG47uidFTqK5aHkaiIzexNQhfKqfrucJW/M7jR62IjYCk/8fXARtIQu+GYldC43p1A5n/e4RabX7w1TmeNWUJKAwmPb5xK8ZfHkhwfc1dcZC5QVwdbV3+MMlldM270utgIEAv+XC+UCes6IeGsrXdM3BJ8ZGuIT++K0LagVnIo5fH982n++EiC53pzpN2N0p+mjDLWB/rv/u7v/t47PYh3E/K+5NUBhy+dSLG12qTS1lbtZIyYgta4QcjQGM0ETOeCoo8g60n6kz6DSQ+E8sfFrNV/RhllbESUCWudEEjoSfp85USKr51K82x3lolcoDr/rqETS4WtsanSoDFqMJ4NGMv4xVQFN5CMZHwuT3uMZQJ0TVATKlV9KKOMdyPKhHWNkKjo1NPdOf72eIrvnk9zYdLFDSSXp13ils7eBgtzDRGzmKVIqz5q4AUqgzhbCKn7gRKb65r26E8q7aaqkOrEU9ZrL+PdivdApdj1g+NLzk34/PBShme7s5wed0rC+3lf8tawwy/eCmFzbc7ImCl4cJNNc1RnR43JU5cznJ9wyRVCyVNZn1f7cwylfHpmPB7dHuGWOmPNiXlLQSKWqBco42bGvCDmuwplwloDAqkq+Z/tyfLExSyvDuRJ5EuzfatCGg9sDvNIZ0Q157yGzwsbgn0NJs0xjR01Jk9ezvLaQI6hlIcfqHKiCxMOU1mfwZTHx7ZFONxiU3cN+VWzkMCTl7PsrzdpjK1cheJKmMoFXJ7xmckFzG4tQ1PJw+3x9/bVVgLTOcmZcbeoWCKYIyBdg82VxpL1pfNxYsxjNO1xb5v9jjYZXm+UCWuVyHmS85OeqkK/mObCRKn+lKkL9tRbfGRrmA9vibCtxli1SNlS0ISq4v/w1hCdNQa7ak1+2p3l1JhDIq+c8rNtw/sTHr0zET62LcLmimvLLA4k/MPZNDV27Jpkfebj8ozHcz15TI1iImgiLzkz4XGw2eLWevOGJkPeTJBSJTufm1ISSxk34PSYy4EWm5gpMDRBTfjq1u4bg3mODee4vdEqE9Z7EV4Aw2mfI0MOT1zK8Ep/rkRtVAglg/PAphCPdEa4u80mfpUmFGuBrQt215o0RHS215g835Pjpf4cXVMuXiDJuJK3h5Ve/XQ+4BM7IuyuNdfs15JSMp7xyfsSx5dM5QJMXVAdmqvx7J3xqAppxKw5/1naVQWwlbZYdD2dygaknYA7miz2Nahym9FMwE8u53hjKM+2agOz0K/OL2SwZ9yAmKURt7Ti9dQLlDpFyBDFkhQvgIQTEDNVadesYuh8iR2J0pDaVWsWCdgLFFFETVEoT5q7BucLFRrRAmGAEnLM+ZKQLkrKYdxAPbsuVLR34c3cDSDnzSpuLr6yCQFVtuBQswVIBlI+L/cp4mksZOxXFRRqA6l0sjQhlO9y3rU94QSMZ2Z7LM5/n2o+fQlRSyx5mLqFeTU0Zd3PXzuzAgGJvETXVHBo/u/IeZKsJ4lZgslsQNqRNMR0oqbSe5tVL22rMNZ0KJUJawXIuJK3x1yeuZzlhd4c58ZLxftChmBfo81HOyN8sCPM1qr1sUSWg0AVbr9vk82OGpNddSbfOZfm6HCenKcWY++MyzfPpMi4ki/sj9FZdW2vejwb8NqQw2DCZzzrs7lS58HNYeKm4MiwQ6WtcVeLTaxANKfGXKZygdJiiiyejJAhaIzptBdqPGvCkpf68yTzcxI+KVdyetzj7IQSh7QNjZaYxoFmi4ghmMz6HBlWGmY7CrLDCSfgiUtZDrWE2FShcXbCZTDp8/hupVMmKZBjV47tNSaGgK5pj9cHHSxDI2IINlfqTOclO2tUnd5IOuCt4Tx3tdg0FxQ5BlI+Zydc9tQp+R83ULLbQ6kAP4AASdTU6KwyaI5p+BL6Ej7nJz1yhWL0hojGrfUW1aG5+RHMqo6q54magqqQzuZKg6bIHIlfnvG4PK2CLZoQ+AEcaDapDS/vBpjOB7w9ompLfSlwA8nuWoNNFaoNnBfAuUmPC5MeGS9ACGiK6uypNWmIavgFMb6T4w4pR6JrSs55T61JW+GKemHK5/XBHPsbbY6P5BlJB7RW6BxusTk34dKd8JjI+BxuDfGhLaFVCxu8Rw3vlUGiTrCf9eX5s7eS/K9TKU6O5otkpRWsqk/uivLFgxX88r4YndXXl6zmw9YFHZU6n9gR4Z/dUcFDWyJUF3pGBhJGUj5PdWV46nKupDZxtRAIxjIBWVf55iTw9dMZXhvMkw8klqHxUn+esXnaWs/35kkVTumlMJMP6Jr2OD3hcXrc5fUhpee1q84kbCjr5eiww9OXs6ScgKqQTsoJeLEvx2sDStxpOh/w+kCevsScpZtyAp7rydGT8NBQvrFne3PM5OdUbl8bcLAKx3vKlfxtofORLiR5P+CNIZevnUzRn1TPM5kNeLFXqYjOYjCprO3RQiHyhUmXYyMuUzmfkKFKoM5OuLw57DCdl2Rdyelxl9PjDgJJICWTObnqXp5SKpXYpy7nmMpJooYgpEP3jMe3zmWWlJ0BZSX+tCfH5WmvYDkpgc3vX8jSPeMXVEU9fngxy6lxh0Aqra/joy4XpjzynqR7xuP5vhzd0z5RU8PSBKfHXV7oyxcsWcHlaZdvn8twccojbKr8wO+eS/PNsxn6kz61YY20I/nqqRTja9DLL1tYy8CTqkfgs905vnchw5HBXInqgaULbmmw+MjWCJ/YEaG9Yn0c0mtB3FIqqjVhnYgp+ElXpuDQVn6t53uy3NVicdsalAtmk1M7Kk3uabOImIIH3BBDKZ9nunPsq7e4s8nip5ezDKYCWmKSlANjGZ/3d4SWbMkuECScgLMTHvlCIfFo2seTkpqQjhCC8cL1WxPw+K4ItWGNyVzADy5kefpyjsOtIaQEX8pShVqp9KK8QOmAbatWEdO3hh0e6rDxJTzbk+O3D8TRBbw17HJ2wuU/PFDFthoTKeH5vjzfS82T6RZKyHF+ga8vJX6gKg0CCW8NO+iaxj1tIapCAhmAoeU5OuJQHRLsrDWZyUsqbY3722yilobjy1Ufbl4guTjpMpQO+NTOaFERojlm8q+fneBwi1LgWIjuhJrPz+yKsrPGRNNge43Jf389wdERh6qQxs/6lBTUz+1QkjJSwvlJF0NTKrVHRxzG0j6PdEa4rdHEl/Byf56X+vOcHHN5YJOOX1BhubXeZGeNwcVJlwuTLpcmHf7NvVW0Vehsqzb5jy9NM5TyVygSOYcyYS2BvC+5OOXxg4tZvncuTW/CK6YrCCBqaRxssfn83jgPbg4Rvglkzy0d9jWYfP7WGGlX8mRXBrfgdzoz7vB0d44dNSbRVUqeCNTVbV+jIiuBkiq5s9nmH86mSTkBHVUG22oMeqY99tQavDnisK3GpDG6TE6YUBu3o1JnR7WBBDoqdY6POpwZd9lSZTCZDUi5kq1VejHaWRfW2Fyp89aIw+Q87fXlbBQBVFiCBzeFeK4nyz1tFmMZpbowG4x4YyjPrfUWrXFDXU8E3NGkuptrK2ATgdJVH04HCALOTbiIwtVzKidJ5AOGUz77Gy0aohoXJn1eGnCosjVaYjrtV4n2FT+nMBQ3UJZb0gk4Pe6q63Ph36rDGkPpgN116r3Nn5lLk0pV99KUR7JohQmqQhpTuYDxjE/XtEtTzGBLpV5UItlf8DFO55X/ydYFLTHlv9QFtMR0bB26pz0e2KRUWGpCGrtr1XzGLI3OahPXl2ytMgrCkzrVIY38GkSIy4S1ADlPcmrc5etn0jxxMaNE+wvQBFSHdB7YFOZzt0a5t9W+qUpiTA32Nph8cmeErmmXM2PqmjWZDXhtIMfDW8PsXeL0vRq8AHQxb2cAMzlfFVbrAg14/+Yw3zid5nCrzRuDee5tC1F3BbnoCltnT53JgaY5YULHl7w+6HB52i32sPMDCAIVzg/knJUzOxJfQrZQCS5RG3q+xWXpgoPNFk93Z7k05XFs1OXutrkmDhos6isppVzkWwko1YFMOrKkUUrOV5IrremCDpZQlsb+BovtNeprB5pMKm1B97THSNqnN+GRcs0rvpOlyNgNVGDlgbbQ3IEg4JHOMB0Vyyl5SAaTHiNpD9sArSAzsavOpDmqUxPWCZtKEmg+Uc9OzSyZe1LNxSxmrVn1I+rntAKZgZqDuK2RdYPiXhGi8PlryO0rE9Y8ZD2V6PmVkyl+2p0tEaXTNWiJGXxse4RP7YyWRJhuJti64LZGiw92hOmZ9si4SsG0d8bjyJDDnloDfRUhQ4lkOh9wfNTlzmYVIr887fHaYJ7bGi0qbVV2tK3awJfwUr/DVDagMaotH04v+EcmsgHDaTXHeU/Sl/DVwkZJTzdFdfqTPhemPNoqdIaSPmfGXeojShfLC1Tk8OSYw31tNnkf3hpR/pdEfk4zqi6isbvW4ocXswynfb54oKL47u5qsfnzYwleH8pzoNlGSnilP89I2i9e+Wy9ML6kT3ul0jY/P+kyk1dza2rQWWXi+S6tMY0DzTa6UI5xP5BsqTKYyQeMplUXpNsbLHqTPj+6lOWlvtyVDxFZEE4t7G1Lh/0NNj+4kKU6JDjUamMKuDjlM5r12VqlLJuQIXACmMxKqmw1vqaoQWVI57421a1mNB1wadpjW7XSRTvcYnNizOXilEfctnB9yZkJl5ipsbXaYGuVwZEhh5NjLhFTw/WVX84NJNuqC4X6yy6txf+wlu1TJqwCcp5y8v750QRPdZU2V7UNwa5ai8e2h/ncLbFVtya60aiP6BxotnmyK1tsTjGVDTg6nOfx3RFiqxi+ulZpdM34aJqKMB0fdQgZgse2h4kVnNemBve3h/jjNxN8dFuYxisoWYZNDS+AE6MeYxmJRJL3JEMpj1vqVdSz0tY43GrxdHeOn/bkaKswGEr55APJp3ZGsHWoDevsb7T57vk0P+7KYemC/oTPLQ02M3nVuUagrKwPdIT43acnuKM5VOJvvLvN4sV+i5905RjLSoIATo+raOusVEpDRGNThcGRYYesL0g6ASFDozqk4wWKTO5tsxlL+7wxpCJoliHonfGoDWu0xnVSjuTUhIfrS1rjqhsTUtIUNyi1XUth6oL6iF5Mp9A1ldby0JYwP+nK4krQgQtTHr6UHGiyMIEdNQavD+gcGXapDmlsrzH40NYQJ8ZcXuzXqLEFw5mAkZRPU1SjPqJxT7vNRDbg9ISrUkm8gPOzkdBKnbtabJKO5MSYQ8qV5DwYSPjsrbe4o2ApR02N+sjcuzc0QaWtY+tBydfqozr2GlRpy7WEqNPz7VGHvzqW5CeXSsnK0gW31lv85p0VPL4runS77ZsMulDW4pkJl0tTKrHVDVRuzMOdkVX5sYSAkKFxqNViIOFzYcKhPqLz+O4onQv70wnB8z1ZPrM7ypZKY1kLVNPUop319YDKWbq7NcR97XYh10o1cmiOGkznlGJtU0zng5vDbC+kMJiaoDasETV1htMeNWGlx7633sTSRZGYNKHe43fPZ/j5PdFiCgQoorijSTnjL025JPIBD3aEuTjlcXdbiIaIRsxSmuQZFxKOz7Zqg/vbbeoiOo0RneqQykvbXGUiUS3UJrMBO2tNDjZbxRy1qCmYygV0Tbsk8wG76yzubrWurFAqBBFTY2uVylsSqAN0X4OFrgkuTXn0JdSYPr4jTKhwF6sOaUQsHSklHZUGUVOwq9akwta5PO3Rm/CJWxqPdIZpK8yTrQs6qgzl2J/2SDkBB5st7mq1qbAEEVNVI+iaYDCpOpMfbrW5t23uGXRNqfJ2VBrz1o+gKaoXU0IESml4a5Wxep/qe11x1Avg1LjDn7yZ4HvnSzvr2rpgd73FP9kf51M7V9dv8J1GX9Lnz4+m+KujM8WvHWyx+bOP1tO0jDb8tWAqF/C9C1nGMgGf2xNZdUff6wUplcP42IjDXxxL8scP15Y02XB8eHPYobPaoDasco2ODOX50sk0//JQBdurjXIx+U2E9/SV0JfQk/D45pnMIssqZAj2Ntj80t44n9gZ3lBkBcqCWdiQQKIKmdcbEsFbIy7HRx0e2x6hZpW9Ga8n3ACOj6lSqoc6VG/L+cj78P0LGe5stthUoUL1z3TnONhs0xApK1/cbHjPEpZE5Vl982yGb59Ll0R8wqbgjqYQX9gf5yNbQxty0Tp+ae86IcAQotCld30fSCLxAsmj2yLc2XSz1a5JfD/gUIvNw1tDizKl4xb8+u1xXhvM8Up/lqiluigdbrVXfV0p4/rjPUtYSUfy5OUcXz+VKumzFjIUWf3WgQret8nesPIciXzAcHqux6KtC2rD+roUYi+Ehmr1fjNCOdztK37PlkqdLZXRGzSiMq4FN4/tfgPhBXBsxOFHFzMMz2ucamiCHbUWv7QvzgMbmKzcQFmPPdNzzxa3NLbXrj5xtIwybia8JwlrJO3zfG+O4yP54tcEqunqx7ZF+NCWxVeHjYREPuDCpFtsuAmqqn5HjbnmXoFllHEzYCPvyzXBDSTHRh1+1psjNa9RZ8gUHGyxeWx7ZN0bpN5I+BL6kz7HRhxmcoUOwZqgvdLg9qYrX43KKONmx3uOsAaTAS/15bk46RS/ZmiC3XUWH98RoaNyA7MVKr3glYEcRwbnrMfaiM6B5hCNS8i8lFHGRsJ7irACCSfGHF4dyJGbJ+vRGNN5bHuUh7aE38HRXTvyPhwbcXniUrbQsr3gl6sx+fCW8HVroV5GGTcK7ynCSjqSU2MOl6fmZI01AbcWJI038n72C1Ig3zmX5tiQsq4E0BzT+WBHmD11qy96LqOMmw3vKcIaTKm2WPNzripsnV21Jps28FXQl9Az4/H102l+eDFdFBgMmYLbmmw+vDVcyL8qo4yNjfdUpXlgyAAABQ9JREFUHtZYxi8qRM6iNa5zS721YZlbSe96/O3xFF89kSySsaHBLfUWj++KXbXDShllbBS8pwhrIOnTl/BKvtYYVc0cNhok4PqSrmmfvzqW5JtnUvPISrC1yuBTO6M8sNm6KWVwyihjLXjPEJYE0o5P2inVka4J67RVbKxpmO188lJ/nr89nuTVgRzuPLK6pd7i126P89HOMNZGrCsqo4xlsLF26jVAoJQUF1obAaVa3Tc7/ABGswF/fzrNV08mGUh6xfGHDMHBlhC/elucB9rtclSwjHcd3jOEBZK4pRG3dKbn6YFPZnz6Zjz21N3cUxFI1c/upYE8f/N2klf7s8XUjFmRuoMtNr95R5x720Pv2UakZby7cXPv0nVGa4XBpkqDvsRcWsNI2ufCpHvTEpaU4ASCYyMOXzuV4qfdpTrzAtV84ENbovzSvjj76g30MlmV8S7FzblL///2zuY1riqMw88592smmU5ibBKSFKNoQzBJEVuqSFe6UhAXduFCQejGf8aNoH+AK8GVom7ETQcpjS1thQoxwUomqRNTk8lMkrmf57g4d6KJTLQf0dZ7HrgMM8xcLjPw47znvvM+R8RIn2TimIsrxZ54oN5KubYW8+oz5SOZZHA/RBlcacR8/H2bWj2kFWb7yldHwMnHfd6Zq/DGQzaHymI5CgoVWE8MuJwZ9/m27rDaNncLjXizw+ywz/nph6PTfb2j+fpWh89/3OHGmrEhH9xnGyw5vD7Vz9uzFaaGXALbuWApAIUKLF/CSxMB1yfLfPrD9l6D5eJGzIdXtgDN+em+/+TaWjFcrId8trDD/O2QZqjIlP5LUAkBL06UeO90lXMnAgJHPJIDBi2We6FQgQXw5IDLm9P9rLZTassdlDb7RIsbMe9f3mJ9V/HuqQrlI/5mNII7HUVtOeRiPeRSvcOdTkaSsaeXOsjcaMCF56q8PBkwGMieGniL5f9KISUUqYLaSsQH81tcXg33Xpe5qfbUaMBbMxUzA9x/cMuXTia43oj47peI2nLI4kbMTqxJlDl0j19idsRczyuTJcYqEs8Rj+xwQYvlfihkYIGZeX61kfDR1Rbf3PrDliMwzZdlz4wUnh31eWG8xJnxgKcHPcouyEOMtVoYy20zMp69G42I1e2MSyshje2UMNUkGUSZ7rmSAqOwen6sxPln+zl3wggRbPlnKTqFDSwww/xW2hlfLHb45OY29Va6T1sucp9d4Ah8R+BJkEJQ8SXjVRdPCgQCpTWboWJtJyFTRnWutPmfX5wZlXc3oHohhBljPNrvcnos4LWTfcwc9xgMhA0qiyWn0IEFpiFzO9EsbaZ8tbTLl0u71FsJSvX+jBS5CDR/rvPzHLZi6nWeamBaLc5OlDk75jMz7DFUllQ8YUs/i+UAhQ+sLqmCZqhY2Eip1UPmb0cs/BbTitShK6O7pc8THPMlMyMl5kY85oZ9poZchkqSsmdXUxbLYdjA+hPdCQg7iaYZKX5uZtxcT/ipmXKtEbIZZmQaUqWJUojzjXIpzCHyR1fkJaQjcIRmcsDnqcc8JioO08d9JqsOA4FRf5dd814bUhbL32MDqwcas//USTRhLiVNFEQK2pHi192MRjshyTSeI/Ed8B2J70iqgWC4z6HiG3FpyRGU8mCyAWWx3DuF68P6pwiMfDToarFyz2Z3Mz3JNHEWoPT+1ZVA4Erw8lCyuWSxPDhsYN0l3fLPk6aks1gs/x6/A2bSiwIRWqqmAAAAAElFTkSuQmCC;" vertex="1" parent="1">
                    <mxGeometry x="527.08" y="275" width="185.84" height="70" as="geometry"/>
                </mxCell>
            </root>
        </mxGraphModel>
    </diagram>
</mxfile>